<?xml version="1.0" standalone="no"?>
<!DOCTYPE svg PUBLIC "-//W3C//DTD SVG 20010904//EN"
 "http://www.w3.org/TR/2001/REC-SVG-20010904/DTD/svg10.dtd">
<svg version="1.0" xmlns="http://www.w3.org/2000/svg"
 width="512.000000pt" height="512.000000pt" viewBox="0 0 512.000000 512.000000"
 preserveAspectRatio="xMidYMid meet">

<g transform="translate(0.000000,512.000000) scale(0.100000,-0.100000)"
fill="#000000" stroke="none">
<path d="M650 5111 c-74 -23 -127 -69 -159 -141 -18 -39 -21 -66 -21 -206 0
-155 1 -161 23 -182 33 -31 80 -29 106 4 19 24 21 40 21 175 0 142 1 149 24
176 l24 28 1874 3 c1397 2 1880 -1 1901 -9 56 -23 57 -33 57 -449 l0 -380
-1940 0 -1940 0 0 95 c0 88 -2 98 -25 120 -13 14 -36 25 -50 25 -14 0 -37 -11
-50 -25 l-25 -24 0 -2063 c0 -2054 1 -2063 21 -2108 25 -55 62 -95 114 -123
l40 -22 1915 0 1915 0 40 22 c52 28 89 68 114 123 20 45 21 52 21 2410 0 2358
-1 2365 -21 2410 -25 55 -62 95 -114 123 l-40 22 -1900 2 c-1045 1 -1911 -2
-1925 -6z m3758 -1137 l92 -7 0 -1876 c0 -2052 4 -1904 -57 -1930 -21 -8 -507
-11 -1901 -9 l-1874 3 -24 28 -24 28 0 1885 0 1884 1848 0 c1017 0 1890 -3
1940 -6z"/>
<path d="M2345 3594 c-252 -45 -463 -154 -651 -336 -252 -244 -378 -541 -378
-893 0 -340 114 -621 351 -866 243 -251 545 -379 893 -379 342 0 644 126 882
367 182 185 289 383 344 638 24 112 24 370 0 480 -57 263 -173 472 -360 653
-191 185 -402 292 -660 337 -110 19 -313 18 -421 -1z m391 -524 c259 -66 461
-267 531 -530 23 -87 23 -262 0 -350 -69 -263 -274 -466 -536 -531 -70 -18
-105 -21 -200 -17 -202 9 -344 71 -486 213 -89 90 -146 185 -186 315 -34 107
-34 283 0 390 81 260 270 445 521 510 103 26 252 26 356 0z"/>
<path d="M1204 1159 c-173 -17 -354 -103 -354 -169 0 -10 9 -29 21 -44 27 -34
60 -34 140 4 94 43 172 61 276 61 105 0 190 -19 274 -62 32 -16 72 -29 89 -29
58 0 90 67 56 116 -20 28 -137 80 -232 103 -96 23 -176 29 -270 20z"/>
<path d="M3370 1089 c-52 -16 -100 -56 -121 -103 -16 -36 -19 -68 -19 -280 0
-225 1 -242 21 -284 15 -29 37 -54 67 -73 45 -28 49 -29 184 -29 125 0 140 2
158 20 25 25 26 71 1 101 -18 22 -27 24 -138 27 -65 2 -124 8 -130 14 -10 8
-13 64 -13 218 0 115 3 215 6 224 5 14 50 16 395 16 374 0 389 -1 399 -19 13
-26 13 -406 0 -432 -10 -17 -22 -19 -126 -19 -115 0 -116 0 -146 -30 -24 -25
-29 -36 -23 -58 14 -58 26 -62 172 -62 152 0 182 8 230 63 50 57 55 88 51 342
-4 268 -9 288 -93 340 l-48 30 -396 2 c-246 1 -409 -2 -431 -8z"/>
<path d="M1229 850 c-118 -20 -168 -88 -111 -152 18 -21 48 -22 117 -4 33 9
61 10 85 4 89 -22 100 -22 125 2 28 27 32 65 10 97 -29 41 -141 67 -226 53z"/>
<path d="M1243 506 c-29 -13 -63 -59 -63 -86 0 -27 33 -78 56 -89 44 -20 83
-13 115 18 39 40 40 89 2 130 -34 37 -68 45 -110 27z"/>
<path d="M1020 4798 c-31 -17 -51 -36 -68 -68 -22 -43 -23 -53 -20 -196 3
-147 4 -151 31 -187 53 -70 22 -67 677 -67 655 0 624 -3 677 67 27 36 28 40
31 187 3 142 2 154 -20 196 -17 32 -36 51 -68 68 l-44 22 -576 0 -576 0 -44
-22z m1078 -134 l92 -7 0 -113 0 -114 -550 0 -550 0 0 120 0 120 458 0 c253 0
500 -3 550 -6z"/>
<path d="M2711 4779 c-102 -31 -171 -123 -171 -228 0 -103 45 -176 135 -217
123 -58 270 -1 323 126 23 57 13 157 -23 215 -52 84 -173 131 -264 104z"/>
<path d="M3292 4776 c-59 -19 -107 -58 -139 -113 -36 -61 -38 -157 -6 -219 67
-127 221 -172 340 -98 123 76 149 245 56 354 -63 74 -164 104 -251 76z"/>
<path d="M3895 4781 c-157 -39 -233 -221 -149 -358 76 -123 251 -150 355 -56
77 70 102 153 75 248 -35 120 -162 195 -281 166z"/>
</g>
</svg>
