<?xml version="1.0" standalone="no"?>
<!DOCTYPE svg PUBLIC "-//W3C//DTD SVG 20010904//EN"
 "http://www.w3.org/TR/2001/REC-SVG-20010904/DTD/svg10.dtd">
<svg version="1.0" xmlns="http://www.w3.org/2000/svg"
 width="8000.000000pt" height="8000.000000pt" viewBox="0 0 8000.000000 8000.000000"
 preserveAspectRatio="xMidYMid meet">

<g transform="translate(0.000000,8000.000000) scale(0.100000,-0.100000)"
fill="#000000" stroke="none">
<path d="M24976 69899 c-422 -29 -814 -190 -1216 -499 -131 -101 -434 -407
-564 -570 -497 -622 -899 -1490 -1150 -2482 -133 -524 -215 -1043 -257 -1628
-20 -273 -17 -1049 5 -1235 2 -16 7 -66 11 -110 3 -44 8 -93 10 -110 27 -208
41 -296 71 -445 305 -1540 1256 -2805 2491 -3316 376 -156 736 -231 1138 -239
410 -8 761 53 1150 200 566 213 1104 629 1522 1175 449 588 762 1350 882 2150
11 74 23 167 26 205 4 39 8 81 11 95 22 136 29 775 10 890 -2 14 -7 66 -11
115 -27 382 -127 991 -234 1426 -416 1699 -1262 3131 -2282 3866 -405 292
-882 480 -1284 507 -188 13 -213 13 -329 5z"/>
<path d="M15115 68244 c-229 -35 -414 -93 -620 -193 -712 -348 -1266 -1101
-1598 -2171 -121 -389 -220 -873 -262 -1277 -3 -29 -7 -74 -10 -100 -48 -465
-53 -1133 -10 -1608 48 -534 123 -989 245 -1490 312 -1283 1033 -2359 2015
-3010 417 -276 796 -440 1245 -539 1093 -241 2214 119 2967 953 509 562 843
1261 993 2073 62 339 74 484 74 898 0 335 -5 458 -29 635 -40 300 -74 477
-140 734 -373 1447 -1178 2884 -2170 3876 -669 668 -1350 1070 -2034 1202
-116 22 -168 26 -356 29 -152 2 -248 -2 -310 -12z"/>
<path d="M55520 65424 c-568 -50 -1096 -282 -1619 -712 -835 -686 -1543 -1779
-2011 -3104 -263 -742 -460 -1674 -485 -2288 -3 -69 -8 -156 -10 -195 -7 -95
11 -480 30 -656 101 -919 428 -1737 964 -2409 103 -130 412 -437 546 -544 504
-401 1096 -637 1715 -685 147 -12 442 -5 590 13 624 77 1220 338 1760 771 150
120 417 378 547 529 574 667 963 1500 1134 2425 23 128 65 435 74 546 4 44 8
91 10 105 35 239 41 1162 10 1471 -3 24 -9 100 -15 169 -15 177 -46 415 -81
630 -167 1021 -514 1967 -970 2651 -485 725 -1062 1150 -1710 1258 -121 20
-380 34 -479 25z"/>
<path d="M32635 63283 c-530 -68 -1025 -332 -1490 -798 -805 -803 -1424 -2122
-1709 -3635 -32 -172 -78 -472 -91 -600 -3 -30 -8 -71 -10 -90 -41 -293 -60
-888 -42 -1280 38 -835 290 -1687 700 -2375 501 -838 1226 -1449 2033 -1714
554 -182 1129 -205 1689 -67 1425 351 2538 1708 2834 3457 56 326 65 459 65
909 0 319 -4 475 -17 625 -10 110 -19 211 -21 225 -3 14 -7 57 -11 95 -14 157
-78 570 -125 802 -162 808 -406 1527 -745 2189 -669 1309 -1594 2120 -2564
2249 -96 13 -417 18 -496 8z"/>
<path d="M65090 63190 c-580 -54 -1205 -324 -1813 -783 -1141 -860 -2160
-2305 -2702 -3832 -183 -517 -284 -979 -326 -1497 -11 -143 -7 -709 6 -823 19
-169 29 -236 51 -375 52 -313 163 -697 285 -983 517 -1210 1498 -1964 2699
-2076 103 -9 487 -7 585 4 657 74 1323 350 1887 782 762 584 1348 1418 1688
2398 215 624 388 1435 450 2110 6 66 13 140 15 165 14 134 20 377 19 720 -1
420 -11 592 -55 940 -188 1481 -795 2580 -1674 3030 -222 113 -463 188 -695
214 -98 11 -330 14 -420 6z"/>
<path d="M10010 59465 c-647 -79 -1205 -451 -1631 -1087 -448 -668 -727 -1623
-786 -2693 -14 -255 -6 -1104 12 -1135 1 -3 5 -45 9 -95 47 -638 219 -1473
437 -2128 495 -1485 1575 -2639 2872 -3068 381 -126 722 -176 1120 -166 289 7
539 46 793 122 1111 335 1953 1275 2287 2555 109 413 151 756 151 1220 -1 734
-126 1347 -436 2140 -535 1366 -1447 2646 -2463 3459 -563 450 -1121 732
-1665 841 -246 49 -483 61 -700 35z"/>
<path d="M47345 59293 c-94 -9 -279 -45 -395 -77 -457 -125 -907 -401 -1339
-821 -1005 -978 -1755 -2620 -2010 -4400 -16 -115 -37 -282 -46 -370 -8 -88
-18 -178 -20 -200 -13 -105 -17 -632 -6 -790 116 -1650 945 -3039 2186 -3657
285 -142 625 -246 965 -295 174 -25 613 -24 785 1 752 109 1420 453 1993 1025
851 849 1344 2034 1409 3391 15 293 7 934 -12 1113 -3 23 -10 98 -16 167 -104
1198 -479 2427 -1012 3315 -210 351 -408 608 -667 865 -391 389 -811 624
-1274 711 -84 16 -159 22 -306 24 -107 1 -213 0 -235 -2z"/>
<path d="M22345 57190 c-411 -23 -818 -115 -1195 -270 -863 -355 -1599 -1083
-2331 -2305 -318 -530 -477 -832 -1214 -2310 -729 -1462 -855 -1704 -1208
-2340 -396 -713 -853 -1446 -1262 -2025 -129 -183 -401 -547 -656 -880 -283
-369 -530 -797 -682 -1185 -160 -409 -248 -783 -287 -1226 -12 -147 -4 -559
14 -714 119 -983 569 -1872 1317 -2600 734 -715 1672 -1178 2684 -1324 77 -11
178 -23 225 -26 47 -4 103 -8 125 -11 65 -6 514 -5 590 1 723 61 1600 284
2345 595 445 186 754 344 1515 775 608 344 762 426 1043 552 685 307 1331 427
2052 383 343 -22 643 -65 1320 -190 865 -160 1241 -211 1725 -237 214 -12 882
-8 1045 6 80 6 172 14 205 17 33 3 74 7 90 9 17 2 57 7 90 10 108 11 478 66
585 86 916 175 1749 621 2424 1295 807 807 1294 1841 1387 2941 11 139 7 609
-6 713 -3 25 -13 97 -21 160 -117 891 -572 1753 -1275 2412 -279 261 -463 401
-904 688 -1022 663 -2015 1456 -3145 2509 -283 265 -610 581 -1355 1311 -742
728 -878 859 -1125 1091 -1122 1051 -1950 1618 -2773 1898 -434 148 -908 215
-1342 191z"/>
<path d="M69640 54104 c-880 -84 -1853 -636 -2775 -1575 -795 -810 -1454
-1814 -1879 -2867 -198 -491 -336 -1027 -381 -1482 -3 -36 -10 -108 -15 -160
-15 -155 -5 -763 14 -920 114 -915 435 -1660 970 -2252 442 -488 1051 -832
1691 -953 224 -42 308 -49 590 -49 289 0 393 9 650 60 1388 276 2656 1423
3260 2950 365 921 588 1927 644 2909 9 150 7 863 -3 920 -2 17 -7 71 -11 120
-10 150 -34 340 -66 535 -189 1137 -649 1980 -1328 2434 -275 184 -553 284
-914 331 -95 12 -314 12 -447 -1z"/>
<path d="M57165 52580 c-950 -63 -1902 -507 -3127 -1461 -419 -327 -798 -645
-1703 -1434 -1207 -1053 -1794 -1538 -2500 -2067 -766 -574 -1436 -1015 -2205
-1453 -415 -236 -648 -391 -905 -602 -913 -750 -1437 -1742 -1521 -2878 -9
-123 -9 -426 0 -560 32 -476 161 -1015 351 -1465 547 -1295 1640 -2306 2930
-2709 477 -149 1201 -273 1815 -310 297 -19 906 -11 1205 14 291 25 421 38
690 70 926 112 934 113 1235 134 179 13 684 5 845 -13 507 -58 932 -180 1392
-401 332 -159 600 -320 1288 -771 656 -430 1103 -684 1588 -903 692 -313 1512
-557 2122 -632 291 -35 755 -37 1030 -3 719 88 1360 307 1963 670 842 509
1496 1248 1863 2106 163 382 270 808 309 1233 9 100 7 628 -3 675 -3 14 -8 57
-12 95 -18 186 -89 527 -155 740 -113 369 -287 753 -496 1099 -48 77 -157 245
-243 371 -531 775 -958 1506 -1430 2445 -378 752 -673 1409 -1266 2820 -698
1662 -992 2288 -1377 2934 -291 488 -560 841 -897 1177 -249 248 -427 392
-681 551 -532 331 -1182 522 -1815 532 -99 2 -229 0 -290 -4z"/>
<path d="M25370 29107 c-3 -2 -52 -7 -110 -11 -586 -38 -1271 -222 -1850 -498
-801 -382 -1513 -989 -2037 -1738 -457 -651 -767 -1438 -882 -2240 -40 -276
-46 -377 -45 -765 0 -329 3 -404 22 -563 107 -880 385 -1636 865 -2352 320
-477 770 -947 1232 -1286 63 -46 65 -50 47 -64 -10 -8 -74 -57 -141 -109 -833
-641 -1457 -1531 -1785 -2548 -127 -393 -205 -802 -237 -1242 -13 -179 -7
-705 10 -846 5 -44 13 -109 16 -145 14 -130 67 -419 110 -595 195 -802 549
-1500 1086 -2146 135 -162 470 -497 634 -633 541 -449 1109 -764 1759 -976
367 -119 712 -189 1160 -235 90 -10 457 -23 523 -19 32 2 123 5 203 8 564 20
1211 168 1770 404 1659 701 2859 2232 3135 3998 51 329 59 446 59 829 0 386
-11 539 -60 833 -13 80 -22 147 -21 149 4 4 18199 4 18203 0 1 -1 -6 -49 -17
-106 -43 -234 -60 -446 -66 -786 -6 -353 6 -552 47 -840 216 -1483 1049 -2794
2300 -3620 736 -487 1563 -775 2435 -849 33 -3 94 -8 135 -12 183 -15 601 -7
835 17 1584 157 3009 1024 3877 2359 485 745 777 1616 835 2487 12 172 8 677
-6 828 -137 1489 -869 2813 -2055 3718 -115 87 -118 91 -99 106 11 9 75 58
142 110 350 269 728 655 997 1016 595 801 964 1800 1021 2763 10 163 10 585 1
727 -64 935 -386 1849 -923 2625 -524 754 -1259 1375 -2090 1762 -561 262
-1202 431 -1800 475 -205 15 -784 9 -955 -10 -1088 -122 -2055 -537 -2870
-1233 -148 -126 -448 -426 -574 -574 -665 -778 -1085 -1723 -1215 -2731 -36
-277 -44 -434 -38 -772 6 -363 28 -596 83 -869 l6 -28 -9106 0 c-5008 0 -9106
3 -9106 6 0 4 9 60 20 124 45 266 61 463 65 800 4 407 -12 621 -77 990 -61
350 -180 753 -322 1094 -515 1229 -1499 2235 -2711 2769 -427 188 -896 327
-1310 387 -44 6 -93 14 -110 16 -151 25 -341 37 -655 41 -196 2 -358 2 -360 0z"/>
</g>
</svg>
