<?xml version="1.0" standalone="no"?>
<!DOCTYPE svg PUBLIC "-//W3C//DTD SVG 20010904//EN"
 "http://www.w3.org/TR/2001/REC-SVG-20010904/DTD/svg10.dtd">
<svg version="1.0" xmlns="http://www.w3.org/2000/svg"
 width="50.000000pt" height="50.000000pt" viewBox="0 0 50.000000 50.000000"
 preserveAspectRatio="xMidYMid meet">

<g transform="translate(0.000000,50.000000) scale(0.100000,-0.100000)"
fill="#000000" stroke="none">
<path d="M150 391 l0 -40 -52 -3 -53 -3 0 -95 0 -95 53 -3 52 -3 0 -40 c0 -26
5 -42 15 -45 8 -3 77 -2 152 2 l138 9 3 38 3 37 -80 0 -81 0 0 94 0 95 -27 4
-28 4 28 2 c25 1 27 4 27 41 l0 40 -75 0 -75 0 0 -39z m-11 -108 c9 -17 10
-17 16 0 4 9 13 17 21 17 11 0 11 -5 2 -25 -8 -19 -8 -31 0 -50 9 -20 9 -25
-2 -25 -8 0 -17 8 -21 18 -6 16 -7 16 -16 0 -6 -10 -17 -18 -26 -18 -14 0 -13
3 2 26 15 23 15 27 0 50 -13 21 -13 24 -1 24 8 0 19 -8 25 -17z"/>
<path d="M310 205 l0 -45 70 0 70 0 0 45 0 45 -70 0 -70 0 0 -45z"/>
</g>
</svg>
